<mxfile host="65bd71144e">
    <diagram id="0TJxwQ1qbD_ot1Af2cOu" name="Page-1">
        <mxGraphModel dx="3163" dy="1974" grid="0" gridSize="10" guides="1" tooltips="1" connect="1" arrows="1" fold="1" page="0" pageScale="1" pageWidth="1200" pageHeight="1600" background="#ffffff" math="0" shadow="0">
            <root>
                <mxCell id="0"/>
                <mxCell id="1" parent="0"/>
                <mxCell id="5" style="edgeStyle=none;html=1;exitX=1;exitY=0.5;exitDx=0;exitDy=0;fontFamily=Helvetica;fontSize=15;fontColor=#000000;startArrow=none;shadow=0;" parent="1" source="202" edge="1">
                    <mxGeometry relative="1" as="geometry">
                        <mxPoint x="160" y="80" as="targetPoint"/>
                    </mxGeometry>
                </mxCell>
                <mxCell id="197" style="edgeStyle=none;html=1;exitX=1;exitY=0.5;exitDx=0;exitDy=0;entryX=0;entryY=0.5;entryDx=0;entryDy=0;strokeWidth=6;strokeColor=#000000;" edge="1" parent="1" source="2" target="196">
                    <mxGeometry relative="1" as="geometry"/>
                </mxCell>
                <mxCell id="2" value="&lt;font style=&quot;font-size: 15px;&quot; color=&quot;#000000&quot;&gt;Start&lt;/font&gt;" style="ellipse;whiteSpace=wrap;html=1;strokeColor=#000000;fillColor=#FFFFFF;strokeWidth=3;perimeterSpacing=1;shadow=0;movable=1;resizable=1;rotatable=1;deletable=1;editable=1;connectable=1;" parent="1" vertex="1">
                    <mxGeometry x="-1429" y="33" width="120" height="80" as="geometry"/>
                </mxCell>
                <mxCell id="11" style="edgeStyle=none;html=1;exitX=1;exitY=0.5;exitDx=0;exitDy=0;entryX=0;entryY=0.5;entryDx=0;entryDy=0;strokeColor=#000000;strokeWidth=4;fontFamily=Helvetica;fontSize=12;fontColor=#000000;shadow=0;" parent="1" source="4" target="10" edge="1">
                    <mxGeometry relative="1" as="geometry"/>
                </mxCell>
                <mxCell id="12" style="edgeStyle=none;html=1;exitX=1;exitY=0.5;exitDx=0;exitDy=0;entryX=0;entryY=0.5;entryDx=0;entryDy=0;strokeColor=#000000;strokeWidth=4;fontFamily=Helvetica;fontSize=12;fontColor=#000000;shadow=0;" parent="1" source="10" target="135" edge="1">
                    <mxGeometry relative="1" as="geometry">
                        <mxPoint x="1267" y="83" as="targetPoint"/>
                    </mxGeometry>
                </mxCell>
                <mxCell id="46" style="edgeStyle=none;html=1;exitX=0.5;exitY=1;exitDx=0;exitDy=0;strokeColor=#000000;strokeWidth=4;fontFamily=Helvetica;fontSize=16;fontColor=#000000;shadow=0;" parent="1" source="10" target="42" edge="1">
                    <mxGeometry relative="1" as="geometry"/>
                </mxCell>
                <mxCell id="10" value="finns det pengar kvar?&lt;br&gt;vill spelaren fortsätta spela?" style="rhombus;whiteSpace=wrap;html=1;shadow=0;labelBackgroundColor=none;strokeColor=#000000;strokeWidth=3;fontFamily=Helvetica;fontSize=12;fontColor=#000000;fillColor=#FFFFFF;" parent="1" vertex="1">
                    <mxGeometry x="780" y="2.5" width="200" height="155" as="geometry"/>
                </mxCell>
                <mxCell id="13" value="&lt;font style=&quot;font-size: 17px;&quot;&gt;No&lt;/font&gt;" style="text;html=1;strokeColor=none;fillColor=none;align=center;verticalAlign=middle;whiteSpace=wrap;rounded=0;shadow=0;labelBackgroundColor=none;strokeWidth=3;fontFamily=Helvetica;fontSize=12;fontColor=#000000;" parent="1" vertex="1">
                    <mxGeometry x="1005" y="50" width="60" height="30" as="geometry"/>
                </mxCell>
                <mxCell id="19" value="Ut:&lt;br&gt;Vill du avsluta (J/N)&lt;br&gt;In: Val" style="shape=parallelogram;perimeter=parallelogramPerimeter;whiteSpace=wrap;html=1;fixedSize=1;shadow=0;labelBackgroundColor=none;strokeColor=#000000;strokeWidth=3;fontFamily=Helvetica;fontSize=17;fontColor=#000000;fillColor=#FFFFFF;" parent="1" vertex="1">
                    <mxGeometry x="770" y="2946" width="200" height="70" as="geometry"/>
                </mxCell>
                <mxCell id="22" style="edgeStyle=none;html=1;exitX=0.5;exitY=1;exitDx=0;exitDy=0;strokeColor=#000000;strokeWidth=4;fontFamily=Helvetica;fontSize=17;fontColor=#000000;shadow=0;" parent="1" source="21" target="19" edge="1">
                    <mxGeometry relative="1" as="geometry"/>
                </mxCell>
                <mxCell id="150" style="edgeStyle=none;html=1;exitX=1;exitY=0.5;exitDx=0;exitDy=0;strokeColor=#000000;strokeWidth=6;" parent="1" source="21" target="23" edge="1">
                    <mxGeometry relative="1" as="geometry"/>
                </mxCell>
                <mxCell id="21" value="har konto mer än 0$?" style="rhombus;whiteSpace=wrap;html=1;shadow=0;labelBackgroundColor=none;strokeColor=#000000;strokeWidth=3;fontFamily=Helvetica;fontSize=17;fontColor=#000000;fillColor=#FFFFFF;" parent="1" vertex="1">
                    <mxGeometry x="775" y="2776" width="190" height="120" as="geometry"/>
                </mxCell>
                <mxCell id="154" style="edgeStyle=none;html=1;exitX=1;exitY=0.5;exitDx=0;exitDy=0;strokeColor=#000000;strokeWidth=6;" parent="1" source="23" target="151" edge="1">
                    <mxGeometry relative="1" as="geometry"/>
                </mxCell>
                <mxCell id="23" value="Ut:&lt;br&gt;Du har slut på pengar&lt;br&gt;Vill du starta om spelet?&lt;br&gt;In: Ja / Nej" style="shape=parallelogram;perimeter=parallelogramPerimeter;whiteSpace=wrap;html=1;fixedSize=1;shadow=0;labelBackgroundColor=none;strokeColor=#000000;strokeWidth=3;fontFamily=Helvetica;fontSize=17;fontColor=#000000;fillColor=#FFFFFF;" parent="1" vertex="1">
                    <mxGeometry x="1126" y="2777" width="305" height="119" as="geometry"/>
                </mxCell>
                <mxCell id="26" value="&lt;span style=&quot;font-size: 17px;&quot;&gt;Yes&lt;/span&gt;" style="text;html=1;strokeColor=none;fillColor=none;align=center;verticalAlign=middle;whiteSpace=wrap;rounded=0;shadow=0;labelBackgroundColor=none;strokeWidth=3;fontFamily=Helvetica;fontSize=12;fontColor=#000000;" parent="1" vertex="1">
                    <mxGeometry x="860" y="2896" width="60" height="30" as="geometry"/>
                </mxCell>
                <mxCell id="33" style="edgeStyle=none;html=1;exitX=1;exitY=0.5;exitDx=0;exitDy=0;strokeColor=#000000;strokeWidth=4;fontFamily=Helvetica;fontSize=17;fontColor=#000000;shadow=0;" parent="1" source="28" target="32" edge="1">
                    <mxGeometry relative="1" as="geometry"/>
                </mxCell>
                <mxCell id="37" style="edgeStyle=none;html=1;exitX=0.5;exitY=1;exitDx=0;exitDy=0;strokeColor=#000000;strokeWidth=4;fontFamily=Helvetica;fontSize=17;fontColor=#000000;shadow=0;" parent="1" source="28" target="36" edge="1">
                    <mxGeometry relative="1" as="geometry"/>
                </mxCell>
                <mxCell id="28" value="rounds &amp;gt; 1" style="rhombus;whiteSpace=wrap;html=1;shadow=0;labelBackgroundColor=none;strokeColor=#000000;strokeWidth=3;fontFamily=Helvetica;fontSize=17;fontColor=#000000;fillColor=#FFFFFF;" parent="1" vertex="1">
                    <mxGeometry x="779.5" y="2426" width="190" height="120" as="geometry"/>
                </mxCell>
                <mxCell id="31" value="&lt;span style=&quot;font-size: 17px;&quot;&gt;No&lt;/span&gt;" style="text;html=1;strokeColor=none;fillColor=none;align=center;verticalAlign=middle;whiteSpace=wrap;rounded=0;shadow=0;labelBackgroundColor=none;strokeWidth=3;fontFamily=Helvetica;fontSize=12;fontColor=#000000;" parent="1" vertex="1">
                    <mxGeometry x="870" y="2549" width="60" height="30" as="geometry"/>
                </mxCell>
                <mxCell id="32" value="Ut:&lt;br&gt;Runda: {rounds} Pengar vunnit / förlorat {totalWInAmount}" style="shape=parallelogram;perimeter=parallelogramPerimeter;whiteSpace=wrap;html=1;fixedSize=1;shadow=0;labelBackgroundColor=none;strokeColor=#000000;strokeWidth=3;fontFamily=Helvetica;fontSize=17;fontColor=#000000;fillColor=#FFFFFF;" parent="1" vertex="1">
                    <mxGeometry x="1073.5" y="2457.5" width="330" height="75" as="geometry"/>
                </mxCell>
                <mxCell id="34" value="&lt;span style=&quot;font-size: 17px;&quot;&gt;Yes&lt;/span&gt;" style="text;html=1;strokeColor=none;fillColor=none;align=center;verticalAlign=middle;whiteSpace=wrap;rounded=0;shadow=0;labelBackgroundColor=none;strokeWidth=3;fontFamily=Helvetica;fontSize=12;fontColor=#000000;" parent="1" vertex="1">
                    <mxGeometry x="980" y="2457.5" width="60" height="30" as="geometry"/>
                </mxCell>
                <mxCell id="183" style="edgeStyle=none;html=1;exitX=0.5;exitY=1;exitDx=0;exitDy=0;entryX=0.5;entryY=0;entryDx=0;entryDy=0;strokeColor=#000000;" parent="1" source="36" target="180" edge="1">
                    <mxGeometry relative="1" as="geometry"/>
                </mxCell>
                <mxCell id="185" value="" style="edgeStyle=none;html=1;strokeColor=#000000;strokeWidth=2;" parent="1" source="36" target="180" edge="1">
                    <mxGeometry relative="1" as="geometry"/>
                </mxCell>
                <mxCell id="36" value="rounds + 1" style="rounded=0;whiteSpace=wrap;html=1;shadow=0;labelBackgroundColor=none;strokeColor=#000000;strokeWidth=3;fontFamily=Helvetica;fontSize=17;fontColor=#000000;fillColor=#FFFFFF;" parent="1" vertex="1">
                    <mxGeometry x="813.5" y="2579" width="120" height="60" as="geometry"/>
                </mxCell>
                <mxCell id="40" style="edgeStyle=none;html=1;exitX=0.5;exitY=1;exitDx=0;exitDy=0;entryX=0.5;entryY=0;entryDx=0;entryDy=0;strokeColor=#000000;strokeWidth=4;fontFamily=Helvetica;fontSize=17;fontColor=#000000;shadow=0;" parent="1" source="39" target="28" edge="1">
                    <mxGeometry relative="1" as="geometry"/>
                </mxCell>
                <mxCell id="39" value="konto samt total vinsten justeras med rundans vinst summa." style="rounded=0;whiteSpace=wrap;html=1;shadow=0;labelBackgroundColor=none;strokeColor=#000000;strokeWidth=3;fontFamily=Helvetica;fontSize=17;fontColor=#000000;fillColor=#FFFFFF;align=left;" parent="1" vertex="1">
                    <mxGeometry x="737.5" y="2285" width="280" height="90" as="geometry"/>
                </mxCell>
                <mxCell id="44" style="edgeStyle=none;html=1;exitX=0.5;exitY=1;exitDx=0;exitDy=0;strokeColor=#000000;strokeWidth=4;fontFamily=Helvetica;fontSize=16;fontColor=#000000;shadow=0;" parent="1" source="42" target="43" edge="1">
                    <mxGeometry relative="1" as="geometry"/>
                </mxCell>
                <mxCell id="42" value="In:&amp;nbsp;&lt;span style=&quot;font-size: 16px; text-align: justify; background-color: initial;&quot;&gt;Spelare väljer en insats mellan&lt;/span&gt;&lt;div style=&quot;text-align: justify; line-height: 19px; font-size: 16px;&quot;&gt;100$, 300$ eller 500$&lt;/div&gt;" style="shape=parallelogram;perimeter=parallelogramPerimeter;whiteSpace=wrap;html=1;fixedSize=1;shadow=0;labelBackgroundColor=none;strokeColor=#000000;strokeWidth=3;fontFamily=Helvetica;fontSize=17;fontColor=#000000;fillColor=#FFFFFF;" parent="1" vertex="1">
                    <mxGeometry x="725" y="240" width="300" height="110" as="geometry"/>
                </mxCell>
                <mxCell id="48" style="edgeStyle=none;html=1;exitX=1;exitY=0.5;exitDx=0;exitDy=0;strokeColor=#000000;strokeWidth=4;fontFamily=Helvetica;fontSize=16;fontColor=#000000;shadow=0;" parent="1" source="43" target="49" edge="1">
                    <mxGeometry relative="1" as="geometry">
                        <mxPoint x="1145" y="487.5" as="targetPoint"/>
                    </mxGeometry>
                </mxCell>
                <mxCell id="144" style="edgeStyle=none;html=1;exitX=0.5;exitY=1;exitDx=0;exitDy=0;entryX=0.5;entryY=0;entryDx=0;entryDy=0;strokeColor=#000000;strokeWidth=6;" parent="1" source="43" target="142" edge="1">
                    <mxGeometry relative="1" as="geometry"/>
                </mxCell>
                <mxCell id="43" value="&lt;div style=&quot;text-align: justify; line-height: 19px; font-size: 16px;&quot;&gt;&lt;span style=&quot;background-color: initial;&quot;&gt;Är denna insats korrekt?&lt;/span&gt;&lt;br&gt;&lt;/div&gt;&lt;div style=&quot;text-align: justify; line-height: 19px; font-size: 16px;&quot;&gt;&lt;span style=&quot;background-color: initial;&quot;&gt;Finns det tillräckligt med pengar&lt;br&gt;på kontot för denna valutan?&lt;/span&gt;&lt;/div&gt;" style="rhombus;whiteSpace=wrap;html=1;shadow=0;labelBackgroundColor=none;strokeColor=#000000;strokeWidth=3;fontFamily=Helvetica;fontSize=17;fontColor=#000000;fillColor=#FFFFFF;align=center;" parent="1" vertex="1">
                    <mxGeometry x="711.5" y="395.5" width="326" height="174.5" as="geometry"/>
                </mxCell>
                <mxCell id="49" value="Ut:&lt;br&gt;försök igen&lt;br&gt;In: ny insars" style="shape=parallelogram;perimeter=parallelogramPerimeter;whiteSpace=wrap;html=1;fixedSize=1;shadow=0;labelBackgroundColor=none;strokeColor=#000000;strokeWidth=3;fontFamily=Helvetica;fontSize=17;fontColor=#000000;fillColor=#FFFFFF;" parent="1" vertex="1">
                    <mxGeometry x="1171" y="447.75" width="130" height="70" as="geometry"/>
                </mxCell>
                <mxCell id="54" value="" style="edgeStyle=elbowEdgeStyle;elbow=horizontal;endArrow=classic;html=1;curved=0;rounded=0;endSize=8;startSize=8;strokeColor=#000000;strokeWidth=4;fontFamily=Helvetica;fontSize=16;fontColor=#000000;exitX=0.5;exitY=0;exitDx=0;exitDy=0;shadow=0;" parent="1" source="49" edge="1">
                    <mxGeometry width="50" height="50" relative="1" as="geometry">
                        <mxPoint x="1475" y="457.5" as="sourcePoint"/>
                        <mxPoint x="875" y="376" as="targetPoint"/>
                        <Array as="points">
                            <mxPoint x="1236" y="402"/>
                        </Array>
                    </mxGeometry>
                </mxCell>
                <mxCell id="64" style="edgeStyle=none;html=1;exitX=1;exitY=0.5;exitDx=0;exitDy=0;strokeColor=#000000;strokeWidth=5;shadow=0;" parent="1" source="59" target="63" edge="1">
                    <mxGeometry relative="1" as="geometry"/>
                </mxCell>
                <mxCell id="73" style="edgeStyle=none;html=1;exitX=0.5;exitY=1;exitDx=0;exitDy=0;entryX=0.5;entryY=0;entryDx=0;entryDy=0;strokeColor=#000000;strokeWidth=5;shadow=0;" parent="1" source="59" target="76" edge="1">
                    <mxGeometry relative="1" as="geometry">
                        <mxPoint x="880.5" y="1289" as="targetPoint"/>
                    </mxGeometry>
                </mxCell>
                <mxCell id="59" value="&lt;div style=&quot;text-align: justify; line-height: 19px; font-size: 16px;&quot;&gt;Är valet giltigt?&lt;/div&gt;" style="rhombus;whiteSpace=wrap;html=1;shadow=0;labelBackgroundColor=none;strokeColor=#000000;strokeWidth=3;fontFamily=Helvetica;fontSize=17;fontColor=#000000;fillColor=#FFFFFF;align=center;" parent="1" vertex="1">
                    <mxGeometry x="727.5" y="1056" width="310" height="160" as="geometry"/>
                </mxCell>
                <mxCell id="61" style="edgeStyle=none;html=1;exitX=0.5;exitY=1;exitDx=0;exitDy=0;strokeColor=#000000;strokeWidth=5;shadow=0;" parent="1" source="60" target="59" edge="1">
                    <mxGeometry relative="1" as="geometry"/>
                </mxCell>
                <mxCell id="60" value="In: färg eller nummer?" style="shape=parallelogram;perimeter=parallelogramPerimeter;whiteSpace=wrap;html=1;fixedSize=1;shadow=0;labelBackgroundColor=none;strokeColor=#000000;strokeWidth=3;fontFamily=Helvetica;fontSize=17;fontColor=#000000;fillColor=#FFFFFF;" parent="1" vertex="1">
                    <mxGeometry x="732.5" y="876" width="300" height="110" as="geometry"/>
                </mxCell>
                <mxCell id="63" value="Ut:&lt;br&gt;Ogiltigt val försök igen&lt;br&gt;In: färg eller nummer?" style="shape=parallelogram;perimeter=parallelogramPerimeter;whiteSpace=wrap;html=1;fixedSize=1;shadow=0;labelBackgroundColor=none;strokeColor=#000000;strokeWidth=3;fontFamily=Helvetica;fontSize=17;fontColor=#000000;fillColor=#FFFFFF;" parent="1" vertex="1">
                    <mxGeometry x="1102.5" y="1081" width="220" height="110" as="geometry"/>
                </mxCell>
                <mxCell id="65" value="" style="edgeStyle=elbowEdgeStyle;elbow=horizontal;endArrow=classic;html=1;curved=0;rounded=0;endSize=8;startSize=8;strokeColor=#000000;strokeWidth=4;fontFamily=Helvetica;fontSize=16;fontColor=#000000;exitX=0.5;exitY=0;exitDx=0;exitDy=0;shadow=0;" parent="1" source="63" edge="1">
                    <mxGeometry width="50" height="50" relative="1" as="geometry">
                        <mxPoint x="1352.5" y="1063.5" as="sourcePoint"/>
                        <mxPoint x="877.5" y="1016" as="targetPoint"/>
                        <Array as="points">
                            <mxPoint x="1207.5" y="1033.5"/>
                        </Array>
                    </mxGeometry>
                </mxCell>
                <mxCell id="67" value="" style="edgeStyle=segmentEdgeStyle;endArrow=classic;html=1;curved=0;rounded=0;endSize=8;startSize=8;strokeColor=#000000;strokeWidth=5;exitX=0;exitY=0.5;exitDx=0;exitDy=0;shadow=0;" parent="1" source="19" edge="1">
                    <mxGeometry width="50" height="50" relative="1" as="geometry">
                        <mxPoint x="580" y="1400" as="sourcePoint"/>
                        <mxPoint x="670" y="81" as="targetPoint"/>
                    </mxGeometry>
                </mxCell>
                <mxCell id="4" value="&lt;div style=&quot;font-size: 14px; line-height: 19px;&quot;&gt;&lt;div style=&quot;&quot;&gt;&lt;div&gt;&lt;span style=&quot;background-color: initial;&quot;&gt;Konto, rundor och total vinst summa sätts till respektive tal, 1000, 0, 0&amp;nbsp;&lt;/span&gt;&lt;br&gt;&lt;/div&gt;&lt;div&gt;&lt;br&gt;&lt;/div&gt;&lt;/div&gt;&lt;/div&gt;" style="rounded=0;whiteSpace=wrap;html=1;shadow=0;labelBackgroundColor=none;strokeColor=#000000;strokeWidth=3;fontSize=15;fontColor=#000000;fillColor=#FFFFFF;align=left;movable=1;resizable=1;rotatable=1;deletable=1;editable=1;connectable=1;" parent="1" vertex="1">
                    <mxGeometry x="372" y="33" width="250" height="90" as="geometry"/>
                </mxCell>
                <mxCell id="85" style="edgeStyle=none;html=1;exitX=0.5;exitY=1;exitDx=0;exitDy=0;strokeColor=#000000;strokeWidth=5;shadow=0;" parent="1" source="76" target="77" edge="1">
                    <mxGeometry relative="1" as="geometry"/>
                </mxCell>
                <mxCell id="114" style="edgeStyle=none;html=1;exitX=1;exitY=0.5;exitDx=0;exitDy=0;entryX=0;entryY=0.5;entryDx=0;entryDy=0;strokeColor=#000000;strokeWidth=3;fontSize=9;shadow=0;" parent="1" source="76" target="112" edge="1">
                    <mxGeometry relative="1" as="geometry"/>
                </mxCell>
                <mxCell id="76" value="&lt;div style=&quot;text-align: justify; line-height: 19px; font-size: 16px;&quot;&gt;Är valet färg?&lt;/div&gt;" style="rhombus;whiteSpace=wrap;html=1;shadow=0;labelBackgroundColor=none;strokeColor=#000000;strokeWidth=3;fontFamily=Helvetica;fontSize=17;fontColor=#000000;fillColor=#FFFFFF;align=center;" parent="1" vertex="1">
                    <mxGeometry x="727.5" y="1283" width="310" height="152" as="geometry"/>
                </mxCell>
                <mxCell id="86" style="edgeStyle=none;html=1;exitX=0.5;exitY=1;exitDx=0;exitDy=0;entryX=0.5;entryY=0;entryDx=0;entryDy=0;strokeColor=#000000;strokeWidth=5;shadow=0;" parent="1" source="77" target="81" edge="1">
                    <mxGeometry relative="1" as="geometry"/>
                </mxCell>
                <mxCell id="99" style="edgeStyle=none;html=1;exitX=1;exitY=0.5;exitDx=0;exitDy=0;entryX=0;entryY=0.5;entryDx=0;entryDy=0;strokeColor=#000000;strokeWidth=5;shadow=0;" parent="1" source="77" target="79" edge="1">
                    <mxGeometry relative="1" as="geometry"/>
                </mxCell>
                <mxCell id="77" value="&lt;div style=&quot;text-align: justify; line-height: 19px; font-size: 16px;&quot;&gt;Är valet nummer?&lt;/div&gt;" style="rhombus;whiteSpace=wrap;html=1;shadow=0;labelBackgroundColor=none;strokeColor=#000000;strokeWidth=3;fontFamily=Helvetica;fontSize=17;fontColor=#000000;fillColor=#FFFFFF;align=center;" parent="1" vertex="1">
                    <mxGeometry x="727.5" y="1516" width="310" height="160" as="geometry"/>
                </mxCell>
                <mxCell id="78" value="Ut: ogiligt val försök igen&lt;br&gt;In: färg" style="shape=parallelogram;perimeter=parallelogramPerimeter;whiteSpace=wrap;html=1;fixedSize=1;shadow=0;labelBackgroundColor=none;strokeColor=#000000;strokeWidth=3;fontFamily=Helvetica;fontSize=17;fontColor=#000000;fillColor=#FFFFFF;" parent="1" vertex="1">
                    <mxGeometry x="2315.5" y="1305.5" width="239" height="110" as="geometry"/>
                </mxCell>
                <mxCell id="103" style="edgeStyle=none;html=1;exitX=1;exitY=0.5;exitDx=0;exitDy=0;entryX=0;entryY=0.5;entryDx=0;entryDy=0;strokeColor=#000000;strokeWidth=5;shadow=0;" parent="1" source="79" target="100" edge="1">
                    <mxGeometry relative="1" as="geometry"/>
                </mxCell>
                <mxCell id="79" value="Ut:&lt;br&gt;Välj en siffra mellan 1-36&lt;br&gt;In: nummer" style="shape=parallelogram;perimeter=parallelogramPerimeter;whiteSpace=wrap;html=1;fixedSize=1;shadow=0;labelBackgroundColor=none;strokeColor=#000000;strokeWidth=3;fontFamily=Helvetica;fontSize=17;fontColor=#000000;fillColor=#FFFFFF;" parent="1" vertex="1">
                    <mxGeometry x="1070.5" y="1541" width="220" height="110" as="geometry"/>
                </mxCell>
                <mxCell id="91" style="edgeStyle=none;html=1;exitX=0.5;exitY=1;exitDx=0;exitDy=0;entryX=0.5;entryY=0;entryDx=0;entryDy=0;strokeColor=#000000;strokeWidth=5;shadow=0;" parent="1" source="80" target="88" edge="1">
                    <mxGeometry relative="1" as="geometry"/>
                </mxCell>
                <mxCell id="95" style="edgeStyle=none;html=1;exitX=1;exitY=0.5;exitDx=0;exitDy=0;entryX=0;entryY=0.5;entryDx=0;entryDy=0;strokeColor=#000000;strokeWidth=5;shadow=0;" parent="1" source="80" target="83" edge="1">
                    <mxGeometry relative="1" as="geometry"/>
                </mxCell>
                <mxCell id="80" value="&lt;div style=&quot;text-align: justify; line-height: 19px; font-size: 16px;&quot;&gt;har spelaren vunnit?&lt;/div&gt;" style="rhombus;whiteSpace=wrap;html=1;shadow=0;labelBackgroundColor=none;strokeColor=#000000;strokeWidth=3;fontFamily=Helvetica;fontSize=17;fontColor=#000000;fillColor=#FFFFFF;align=center;" parent="1" vertex="1">
                    <mxGeometry x="718.5" y="1899" width="303" height="160" as="geometry"/>
                </mxCell>
                <mxCell id="87" style="edgeStyle=none;html=1;exitX=0.5;exitY=1;exitDx=0;exitDy=0;strokeColor=#000000;strokeWidth=5;shadow=0;" parent="1" source="81" target="80" edge="1">
                    <mxGeometry relative="1" as="geometry"/>
                </mxCell>
                <mxCell id="81" value="resultat = slumptal(1:36)" style="rounded=0;whiteSpace=wrap;html=1;shadow=0;labelBackgroundColor=none;strokeColor=#000000;strokeWidth=3;fontFamily=Helvetica;fontSize=17;fontColor=#000000;fillColor=#FFFFFF;align=center;" parent="1" vertex="1">
                    <mxGeometry x="737.5" y="1757" width="280" height="90" as="geometry"/>
                </mxCell>
                <mxCell id="83" value="winAmount = insats * (korrekt multiplicerare)" style="rounded=0;whiteSpace=wrap;html=1;shadow=0;labelBackgroundColor=none;strokeColor=#000000;strokeWidth=3;fontFamily=Helvetica;fontSize=17;fontColor=#000000;fillColor=#FFFFFF;align=center;" parent="1" vertex="1">
                    <mxGeometry x="1117.5" y="1934" width="280" height="90" as="geometry"/>
                </mxCell>
                <mxCell id="89" style="edgeStyle=none;html=1;exitX=0.5;exitY=1;exitDx=0;exitDy=0;strokeColor=#000000;strokeWidth=5;shadow=0;" parent="1" source="88" target="39" edge="1">
                    <mxGeometry relative="1" as="geometry"/>
                </mxCell>
                <mxCell id="88" value="rundans vinst summan minskas med insatsen" style="rounded=0;whiteSpace=wrap;html=1;shadow=0;labelBackgroundColor=none;strokeColor=#000000;strokeWidth=3;fontFamily=Helvetica;fontSize=17;fontColor=#000000;fillColor=#FFFFFF;align=center;" parent="1" vertex="1">
                    <mxGeometry x="734" y="2111" width="280" height="90" as="geometry"/>
                </mxCell>
                <mxCell id="94" value="&lt;span style=&quot;font-size: 17px;&quot;&gt;No&lt;/span&gt;" style="text;html=1;strokeColor=none;fillColor=none;align=center;verticalAlign=middle;whiteSpace=wrap;rounded=0;shadow=0;labelBackgroundColor=none;strokeWidth=3;fontFamily=Helvetica;fontSize=12;fontColor=#000000;" parent="1" vertex="1">
                    <mxGeometry x="877.5" y="2051" width="60" height="30" as="geometry"/>
                </mxCell>
                <mxCell id="96" value="&lt;span style=&quot;font-size: 17px;&quot;&gt;Yes&lt;/span&gt;" style="text;html=1;strokeColor=none;fillColor=none;align=center;verticalAlign=middle;whiteSpace=wrap;rounded=0;shadow=0;labelBackgroundColor=none;strokeWidth=3;fontFamily=Helvetica;fontSize=12;fontColor=#000000;" parent="1" vertex="1">
                    <mxGeometry x="1032.5" y="1942" width="60" height="30" as="geometry"/>
                </mxCell>
                <mxCell id="98" value="" style="edgeStyle=segmentEdgeStyle;endArrow=classic;html=1;curved=0;rounded=0;endSize=8;startSize=8;strokeColor=#000000;strokeWidth=5;exitX=0.5;exitY=1;exitDx=0;exitDy=0;shadow=0;" parent="1" source="83" edge="1">
                    <mxGeometry width="50" height="50" relative="1" as="geometry">
                        <mxPoint x="1175.5" y="2187" as="sourcePoint"/>
                        <mxPoint x="876.5" y="2245" as="targetPoint"/>
                        <Array as="points">
                            <mxPoint x="1254.5" y="2006"/>
                            <mxPoint x="1254.5" y="2245"/>
                        </Array>
                    </mxGeometry>
                </mxCell>
                <mxCell id="110" style="edgeStyle=none;html=1;exitX=1;exitY=0.5;exitDx=0;exitDy=0;strokeColor=#000000;strokeWidth=3;fontSize=9;shadow=0;" parent="1" source="100" target="101" edge="1">
                    <mxGeometry relative="1" as="geometry"/>
                </mxCell>
                <mxCell id="100" value="&lt;div style=&quot;text-align: justify; line-height: 19px; font-size: 16px;&quot;&gt;giltigt val?&lt;/div&gt;" style="rhombus;whiteSpace=wrap;html=1;shadow=0;labelBackgroundColor=none;strokeColor=#000000;strokeWidth=3;fontFamily=Helvetica;fontSize=17;fontColor=#000000;fillColor=#FFFFFF;align=center;" parent="1" vertex="1">
                    <mxGeometry x="1394.5" y="1541" width="261" height="113" as="geometry"/>
                </mxCell>
                <mxCell id="101" value="Ut:&lt;br&gt;ogiltigt nummer försök igen.&lt;br&gt;In: nummer" style="shape=parallelogram;perimeter=parallelogramPerimeter;whiteSpace=wrap;html=1;fixedSize=1;shadow=0;labelBackgroundColor=none;strokeColor=#000000;strokeWidth=3;fontFamily=Helvetica;fontSize=17;fontColor=#000000;fillColor=#FFFFFF;" parent="1" vertex="1">
                    <mxGeometry x="1691.5" y="1541" width="278" height="125" as="geometry"/>
                </mxCell>
                <mxCell id="106" value="" style="edgeStyle=segmentEdgeStyle;endArrow=classic;html=1;curved=0;rounded=0;endSize=8;startSize=8;strokeColor=#000000;strokeWidth=5;exitX=0.5;exitY=1;exitDx=0;exitDy=0;shadow=0;" parent="1" source="100" edge="1">
                    <mxGeometry width="50" height="50" relative="1" as="geometry">
                        <mxPoint x="1344.5" y="1776" as="sourcePoint"/>
                        <mxPoint x="875.5" y="1715" as="targetPoint"/>
                        <Array as="points">
                            <mxPoint x="1525.5" y="1678"/>
                            <mxPoint x="1525.5" y="1715"/>
                        </Array>
                    </mxGeometry>
                </mxCell>
                <mxCell id="107" value="" style="edgeStyle=segmentEdgeStyle;endArrow=classic;html=1;curved=0;rounded=0;endSize=8;startSize=8;strokeColor=#000000;strokeWidth=3;exitX=0.5;exitY=0;exitDx=0;exitDy=0;shadow=0;" parent="1" source="101" edge="1">
                    <mxGeometry width="50" height="50" relative="1" as="geometry">
                        <mxPoint x="1650.5" y="1508" as="sourcePoint"/>
                        <mxPoint x="1326.5" y="1599" as="targetPoint"/>
                        <Array as="points">
                            <mxPoint x="1830.5" y="1473"/>
                        </Array>
                    </mxGeometry>
                </mxCell>
                <mxCell id="115" style="edgeStyle=none;html=1;exitX=1;exitY=0.5;exitDx=0;exitDy=0;strokeColor=#000000;strokeWidth=3;fontSize=9;shadow=0;" parent="1" source="111" target="78" edge="1">
                    <mxGeometry relative="1" as="geometry"/>
                </mxCell>
                <mxCell id="111" value="&lt;div style=&quot;text-align: justify; line-height: 19px; font-size: 16px;&quot;&gt;giltigt val?&lt;/div&gt;" style="rhombus;whiteSpace=wrap;html=1;shadow=0;labelBackgroundColor=none;strokeColor=#000000;strokeWidth=3;fontFamily=Helvetica;fontSize=17;fontColor=#000000;fillColor=#FFFFFF;align=center;" parent="1" vertex="1">
                    <mxGeometry x="1985.5" y="1302.5" width="271" height="113" as="geometry"/>
                </mxCell>
                <mxCell id="113" style="edgeStyle=none;html=1;exitX=1;exitY=0.5;exitDx=0;exitDy=0;entryX=0;entryY=0.5;entryDx=0;entryDy=0;strokeColor=#000000;strokeWidth=3;fontSize=9;shadow=0;" parent="1" source="112" target="111" edge="1">
                    <mxGeometry relative="1" as="geometry"/>
                </mxCell>
                <mxCell id="112" value="Ut:&lt;br&gt;Välj en färg, svart eller röd&lt;br&gt;In: färg" style="shape=parallelogram;perimeter=parallelogramPerimeter;whiteSpace=wrap;html=1;fixedSize=1;shadow=0;labelBackgroundColor=none;strokeColor=#000000;strokeWidth=3;fontFamily=Helvetica;fontSize=17;fontColor=#000000;fillColor=#FFFFFF;" parent="1" vertex="1">
                    <mxGeometry x="1151.5" y="1299" width="252" height="120" as="geometry"/>
                </mxCell>
                <mxCell id="118" value="" style="edgeStyle=segmentEdgeStyle;endArrow=classic;html=1;curved=0;rounded=0;endSize=8;startSize=8;strokeColor=#000000;strokeWidth=3;fontSize=9;exitX=0.5;exitY=0;exitDx=0;exitDy=0;shadow=0;" parent="1" source="78" edge="1">
                    <mxGeometry width="50" height="50" relative="1" as="geometry">
                        <mxPoint x="2196.5" y="1226" as="sourcePoint"/>
                        <mxPoint x="1807.5" y="1361" as="targetPoint"/>
                        <Array as="points">
                            <mxPoint x="2338.5" y="1305"/>
                            <mxPoint x="2338.5" y="1258"/>
                        </Array>
                    </mxGeometry>
                </mxCell>
                <mxCell id="119" value="" style="edgeStyle=segmentEdgeStyle;endArrow=classic;html=1;curved=0;rounded=0;endSize=8;startSize=8;strokeColor=#000000;strokeWidth=3;fontSize=9;exitX=0.5;exitY=1;exitDx=0;exitDy=0;shadow=0;" parent="1" source="111" edge="1">
                    <mxGeometry width="50" height="50" relative="1" as="geometry">
                        <mxPoint x="2048.5" y="1806" as="sourcePoint"/>
                        <mxPoint x="1529.5" y="1715" as="targetPoint"/>
                        <Array as="points">
                            <mxPoint x="2121.5" y="1715"/>
                        </Array>
                    </mxGeometry>
                </mxCell>
                <mxCell id="120" value="&lt;span style=&quot;font-size: 17px;&quot;&gt;No&lt;/span&gt;" style="text;html=1;strokeColor=none;fillColor=none;align=center;verticalAlign=middle;whiteSpace=wrap;rounded=0;shadow=0;labelBackgroundColor=none;strokeWidth=3;fontFamily=Helvetica;fontSize=12;fontColor=#000000;" parent="1" vertex="1">
                    <mxGeometry x="824.5" y="1676" width="60" height="30" as="geometry"/>
                </mxCell>
                <mxCell id="121" value="&lt;span style=&quot;font-size: 17px;&quot;&gt;Yes&lt;/span&gt;" style="text;html=1;strokeColor=none;fillColor=none;align=center;verticalAlign=middle;whiteSpace=wrap;rounded=0;shadow=0;labelBackgroundColor=none;strokeWidth=3;fontFamily=Helvetica;fontSize=12;fontColor=#000000;" parent="1" vertex="1">
                    <mxGeometry x="1032.5" y="1323" width="60" height="30" as="geometry"/>
                </mxCell>
                <mxCell id="122" value="&lt;span style=&quot;font-size: 17px;&quot;&gt;Yes&lt;/span&gt;" style="text;html=1;strokeColor=none;fillColor=none;align=center;verticalAlign=middle;whiteSpace=wrap;rounded=0;shadow=0;labelBackgroundColor=none;strokeWidth=3;fontFamily=Helvetica;fontSize=12;fontColor=#000000;" parent="1" vertex="1">
                    <mxGeometry x="1014" y="1549" width="60" height="30" as="geometry"/>
                </mxCell>
                <mxCell id="123" value="&lt;span style=&quot;font-size: 17px;&quot;&gt;Yes&lt;/span&gt;" style="text;html=1;strokeColor=none;fillColor=none;align=center;verticalAlign=middle;whiteSpace=wrap;rounded=0;shadow=0;labelBackgroundColor=none;strokeWidth=3;fontFamily=Helvetica;fontSize=12;fontColor=#000000;" parent="1" vertex="1">
                    <mxGeometry x="1525.5" y="1651" width="60" height="30" as="geometry"/>
                </mxCell>
                <mxCell id="124" value="&lt;span style=&quot;font-size: 17px;&quot;&gt;Yes&lt;/span&gt;" style="text;html=1;strokeColor=none;fillColor=none;align=center;verticalAlign=middle;whiteSpace=wrap;rounded=0;shadow=0;labelBackgroundColor=none;strokeWidth=3;fontFamily=Helvetica;fontSize=12;fontColor=#000000;" parent="1" vertex="1">
                    <mxGeometry x="2122.5" y="1483" width="60" height="30" as="geometry"/>
                </mxCell>
                <mxCell id="126" value="&lt;span style=&quot;font-size: 17px;&quot;&gt;No&lt;/span&gt;" style="text;html=1;strokeColor=none;fillColor=none;align=center;verticalAlign=middle;whiteSpace=wrap;rounded=0;shadow=0;labelBackgroundColor=none;strokeWidth=3;fontFamily=Helvetica;fontSize=12;fontColor=#000000;" parent="1" vertex="1">
                    <mxGeometry x="1037.5" y="1098" width="60" height="30" as="geometry"/>
                </mxCell>
                <mxCell id="128" value="&lt;span style=&quot;font-size: 17px;&quot;&gt;No&lt;/span&gt;" style="text;html=1;strokeColor=none;fillColor=none;align=center;verticalAlign=middle;whiteSpace=wrap;rounded=0;shadow=0;labelBackgroundColor=none;strokeWidth=3;fontFamily=Helvetica;fontSize=12;fontColor=#000000;" parent="1" vertex="1">
                    <mxGeometry x="884.5" y="1457" width="60" height="30" as="geometry"/>
                </mxCell>
                <mxCell id="129" value="&lt;span style=&quot;font-size: 17px;&quot;&gt;No&lt;/span&gt;" style="text;html=1;strokeColor=none;fillColor=none;align=center;verticalAlign=middle;whiteSpace=wrap;rounded=0;shadow=0;labelBackgroundColor=none;strokeWidth=3;fontFamily=Helvetica;fontSize=12;fontColor=#000000;" parent="1" vertex="1">
                    <mxGeometry x="1037.5" y="442" width="60" height="30" as="geometry"/>
                </mxCell>
                <mxCell id="131" value="&lt;span style=&quot;font-size: 17px;&quot;&gt;Yes&lt;/span&gt;" style="text;html=1;strokeColor=none;fillColor=none;align=center;verticalAlign=middle;whiteSpace=wrap;rounded=0;shadow=0;labelBackgroundColor=none;strokeWidth=3;fontFamily=Helvetica;fontSize=12;fontColor=#000000;" parent="1" vertex="1">
                    <mxGeometry x="786" y="570" width="60" height="30" as="geometry"/>
                </mxCell>
                <mxCell id="132" value="&lt;span style=&quot;font-size: 17px;&quot;&gt;Yes&lt;/span&gt;" style="text;html=1;strokeColor=none;fillColor=none;align=center;verticalAlign=middle;whiteSpace=wrap;rounded=0;shadow=0;labelBackgroundColor=none;strokeWidth=3;fontFamily=Helvetica;fontSize=12;fontColor=#000000;" parent="1" vertex="1">
                    <mxGeometry x="831.5" y="1216" width="60" height="30" as="geometry"/>
                </mxCell>
                <mxCell id="133" value="&lt;span style=&quot;font-size: 17px;&quot;&gt;Yes&lt;/span&gt;" style="text;html=1;strokeColor=none;fillColor=none;align=center;verticalAlign=middle;whiteSpace=wrap;rounded=0;shadow=0;labelBackgroundColor=none;strokeWidth=3;fontFamily=Helvetica;fontSize=12;fontColor=#000000;" parent="1" vertex="1">
                    <mxGeometry x="870" y="175" width="60" height="30" as="geometry"/>
                </mxCell>
                <mxCell id="168" style="edgeStyle=none;html=1;exitX=1;exitY=0.5;exitDx=0;exitDy=0;entryX=0;entryY=0.5;entryDx=0;entryDy=0;strokeColor=#000000;strokeWidth=6;" parent="1" source="135" target="166" edge="1">
                    <mxGeometry relative="1" as="geometry"/>
                </mxCell>
                <mxCell id="135" value="&lt;div style=&quot;font-size: 14px; line-height: 19px;&quot;&gt;&lt;div style=&quot;&quot;&gt;Resultat historik&lt;/div&gt;&lt;/div&gt;" style="rounded=0;whiteSpace=wrap;html=1;shadow=0;labelBackgroundColor=none;strokeColor=#000000;strokeWidth=3;fontSize=15;fontColor=#000000;fillColor=#FFFFFF;align=center;movable=1;resizable=1;rotatable=1;deletable=1;editable=1;connectable=1;" parent="1" vertex="1">
                    <mxGeometry x="1105" y="35" width="250" height="90" as="geometry"/>
                </mxCell>
                <mxCell id="136" value="&lt;font color=&quot;#000000&quot;&gt;&lt;span style=&quot;font-size: 15px;&quot;&gt;Stop&lt;/span&gt;&lt;/font&gt;" style="ellipse;whiteSpace=wrap;html=1;strokeColor=#000000;fillColor=#FFFFFF;strokeWidth=3;perimeterSpacing=1;shadow=0;movable=1;resizable=1;rotatable=1;deletable=1;editable=1;connectable=1;" parent="1" vertex="1">
                    <mxGeometry x="2722" y="48" width="120" height="80" as="geometry"/>
                </mxCell>
                <mxCell id="141" style="edgeStyle=none;html=1;exitX=1;exitY=0.5;exitDx=0;exitDy=0;entryX=0;entryY=0.5;entryDx=0;entryDy=0;strokeColor=#000000;strokeWidth=5;" parent="1" source="139" target="136" edge="1">
                    <mxGeometry relative="1" as="geometry"/>
                </mxCell>
                <mxCell id="139" value="Ut: Tack för att du har spelat!!&amp;nbsp;" style="shape=parallelogram;perimeter=parallelogramPerimeter;whiteSpace=wrap;html=1;fixedSize=1;shadow=0;labelBackgroundColor=none;strokeColor=#000000;strokeWidth=3;fontFamily=Helvetica;fontSize=17;fontColor=#000000;fillColor=#FFFFFF;" parent="1" vertex="1">
                    <mxGeometry x="2377" y="39" width="201" height="94" as="geometry"/>
                </mxCell>
                <mxCell id="145" style="edgeStyle=none;html=1;exitX=0.5;exitY=1;exitDx=0;exitDy=0;entryX=0.5;entryY=0;entryDx=0;entryDy=0;strokeColor=#000000;strokeWidth=6;" parent="1" source="142" target="60" edge="1">
                    <mxGeometry relative="1" as="geometry"/>
                </mxCell>
                <mxCell id="142" value="&lt;div style=&quot;font-size: 14px; line-height: 19px;&quot;&gt;&lt;div style=&quot;&quot;&gt;pengar dras från konto&lt;/div&gt;&lt;/div&gt;" style="rounded=0;whiteSpace=wrap;html=1;shadow=0;labelBackgroundColor=none;strokeColor=#000000;strokeWidth=3;fontSize=15;fontColor=#000000;fillColor=#FFFFFF;align=center;movable=1;resizable=1;rotatable=1;deletable=1;editable=1;connectable=1;" parent="1" vertex="1">
                    <mxGeometry x="755" y="653" width="250" height="90" as="geometry"/>
                </mxCell>
                <mxCell id="146" value="&lt;div style=&quot;text-align: justify; line-height: 19px; font-size: 16px;&quot;&gt;Spela nytt spel ?&lt;/div&gt;" style="rhombus;whiteSpace=wrap;html=1;shadow=0;labelBackgroundColor=none;strokeColor=#000000;strokeWidth=3;fontFamily=Helvetica;fontSize=17;fontColor=#000000;fillColor=#FFFFFF;align=center;" parent="1" vertex="1">
                    <mxGeometry x="-357" y="-14.25" width="326" height="174.5" as="geometry"/>
                </mxCell>
                <mxCell id="149" value="" style="edgeStyle=segmentEdgeStyle;endArrow=classic;html=1;curved=0;rounded=0;endSize=8;startSize=8;strokeColor=#000000;strokeWidth=6;exitX=0.5;exitY=0;exitDx=0;exitDy=0;entryX=0.5;entryY=0;entryDx=0;entryDy=0;" parent="1" source="146" target="139" edge="1">
                    <mxGeometry width="50" height="50" relative="1" as="geometry">
                        <mxPoint x="-217" y="-96" as="sourcePoint"/>
                        <mxPoint x="-167" y="-146" as="targetPoint"/>
                        <Array as="points">
                            <mxPoint x="-194" y="-66"/>
                            <mxPoint x="2477" y="-66"/>
                        </Array>
                    </mxGeometry>
                </mxCell>
                <mxCell id="153" style="edgeStyle=none;html=1;exitX=1;exitY=0.5;exitDx=0;exitDy=0;entryX=0.042;entryY=0.423;entryDx=0;entryDy=0;entryPerimeter=0;strokeColor=#000000;strokeWidth=6;" parent="1" source="151" target="152" edge="1">
                    <mxGeometry relative="1" as="geometry"/>
                </mxCell>
                <mxCell id="151" value="Är svaret giltigt?" style="rhombus;whiteSpace=wrap;html=1;shadow=0;labelBackgroundColor=none;strokeColor=#000000;strokeWidth=3;fontFamily=Helvetica;fontSize=17;fontColor=#000000;fillColor=#FFFFFF;" parent="1" vertex="1">
                    <mxGeometry x="1521" y="2767.75" width="209" height="136.5" as="geometry"/>
                </mxCell>
                <mxCell id="152" value="Ut: ej gitligt svar försök igen&lt;br&gt;In: Ja/Nej" style="shape=parallelogram;perimeter=parallelogramPerimeter;whiteSpace=wrap;html=1;fixedSize=1;shadow=0;labelBackgroundColor=none;strokeColor=#000000;strokeWidth=3;fontFamily=Helvetica;fontSize=17;fontColor=#000000;fillColor=#FFFFFF;" parent="1" vertex="1">
                    <mxGeometry x="1817.5" y="2785.25" width="305" height="119" as="geometry"/>
                </mxCell>
                <mxCell id="155" value="" style="edgeStyle=segmentEdgeStyle;endArrow=classic;html=1;curved=0;rounded=0;endSize=8;startSize=8;strokeColor=#000000;strokeWidth=6;exitX=0.5;exitY=1;exitDx=0;exitDy=0;" parent="1" source="151" edge="1">
                    <mxGeometry width="50" height="50" relative="1" as="geometry">
                        <mxPoint x="1736" y="3013" as="sourcePoint"/>
                        <mxPoint x="-398" y="79" as="targetPoint"/>
                        <Array as="points">
                            <mxPoint x="1626" y="3261"/>
                            <mxPoint x="-398" y="3261"/>
                        </Array>
                    </mxGeometry>
                </mxCell>
                <mxCell id="156" value="&lt;span style=&quot;font-size: 17px;&quot;&gt;No&lt;/span&gt;" style="text;html=1;strokeColor=none;fillColor=none;align=center;verticalAlign=middle;whiteSpace=wrap;rounded=0;shadow=0;labelBackgroundColor=none;strokeWidth=3;fontFamily=Helvetica;fontSize=12;fontColor=#000000;" parent="1" vertex="1">
                    <mxGeometry x="1005" y="2800" width="60" height="30" as="geometry"/>
                </mxCell>
                <mxCell id="158" value="&lt;span style=&quot;font-size: 17px;&quot;&gt;No&lt;/span&gt;" style="text;html=1;strokeColor=none;fillColor=none;align=center;verticalAlign=middle;whiteSpace=wrap;rounded=0;shadow=0;labelBackgroundColor=none;strokeWidth=3;fontFamily=Helvetica;fontSize=12;fontColor=#000000;" parent="1" vertex="1">
                    <mxGeometry x="1721" y="2782" width="60" height="30" as="geometry"/>
                </mxCell>
                <mxCell id="159" value="&lt;span style=&quot;font-size: 17px;&quot;&gt;Yes&lt;/span&gt;" style="text;html=1;strokeColor=none;fillColor=none;align=center;verticalAlign=middle;whiteSpace=wrap;rounded=0;shadow=0;labelBackgroundColor=none;strokeWidth=3;fontFamily=Helvetica;fontSize=12;fontColor=#000000;" parent="1" vertex="1">
                    <mxGeometry x="1550" y="2969" width="60" height="30" as="geometry"/>
                </mxCell>
                <mxCell id="160" value="" style="edgeStyle=segmentEdgeStyle;endArrow=classic;html=1;curved=0;rounded=0;endSize=8;startSize=8;strokeColor=#000000;strokeWidth=6;entryX=0.5;entryY=0;entryDx=0;entryDy=0;exitX=0.5;exitY=0;exitDx=0;exitDy=0;" parent="1" source="152" target="151" edge="1">
                    <mxGeometry width="50" height="50" relative="1" as="geometry">
                        <mxPoint x="1875" y="2773" as="sourcePoint"/>
                        <mxPoint x="1925" y="2723" as="targetPoint"/>
                        <Array as="points">
                            <mxPoint x="1970" y="2704"/>
                            <mxPoint x="1626" y="2704"/>
                        </Array>
                    </mxGeometry>
                </mxCell>
                <mxCell id="174" style="edgeStyle=none;html=1;exitX=0.5;exitY=1;exitDx=0;exitDy=0;entryX=0.5;entryY=0;entryDx=0;entryDy=0;strokeColor=#000000;strokeWidth=6;" parent="1" source="162" target="163" edge="1">
                    <mxGeometry relative="1" as="geometry"/>
                </mxCell>
                <mxCell id="162" value="Är svaret giltigt?" style="rhombus;whiteSpace=wrap;html=1;shadow=0;labelBackgroundColor=none;strokeColor=#000000;strokeWidth=3;fontFamily=Helvetica;fontSize=17;fontColor=#000000;fillColor=#FFFFFF;" parent="1" vertex="1">
                    <mxGeometry x="1857" y="8.999999999999886" width="209" height="136.5" as="geometry"/>
                </mxCell>
                <mxCell id="175" style="edgeStyle=none;html=1;exitX=0;exitY=0;exitDx=0;exitDy=0;strokeColor=#000000;strokeWidth=6;" parent="1" source="163" edge="1">
                    <mxGeometry relative="1" as="geometry">
                        <mxPoint x="1734.4396013532369" y="81.63390677315851" as="targetPoint"/>
                    </mxGeometry>
                </mxCell>
                <mxCell id="163" value="Ut: ej gitligt svar försök igen&lt;br&gt;In: Ja/Nej" style="shape=parallelogram;perimeter=parallelogramPerimeter;whiteSpace=wrap;html=1;fixedSize=1;shadow=0;labelBackgroundColor=none;strokeColor=#000000;strokeWidth=3;fontFamily=Helvetica;fontSize=17;fontColor=#000000;fillColor=#FFFFFF;" parent="1" vertex="1">
                    <mxGeometry x="1835" y="200" width="253" height="89" as="geometry"/>
                </mxCell>
                <mxCell id="164" value="&lt;span style=&quot;font-size: 17px;&quot;&gt;No&lt;/span&gt;" style="text;html=1;strokeColor=none;fillColor=none;align=center;verticalAlign=middle;whiteSpace=wrap;rounded=0;shadow=0;labelBackgroundColor=none;strokeWidth=3;fontFamily=Helvetica;fontSize=12;fontColor=#000000;" parent="1" vertex="1">
                    <mxGeometry x="1969.5" y="148.9999999999999" width="60" height="30" as="geometry"/>
                </mxCell>
                <mxCell id="169" style="edgeStyle=none;html=1;exitX=1;exitY=0.5;exitDx=0;exitDy=0;strokeColor=#000000;strokeWidth=6;" parent="1" source="166" target="162" edge="1">
                    <mxGeometry relative="1" as="geometry"/>
                </mxCell>
                <mxCell id="166" value="Ut:&lt;br&gt;Vill du starta om spelet?&lt;br&gt;In: Ja / Nej" style="shape=parallelogram;perimeter=parallelogramPerimeter;whiteSpace=wrap;html=1;fixedSize=1;shadow=0;labelBackgroundColor=none;strokeColor=#000000;strokeWidth=3;fontFamily=Helvetica;fontSize=17;fontColor=#000000;fillColor=#FFFFFF;" parent="1" vertex="1">
                    <mxGeometry x="1445.25" y="39" width="220.5" height="86" as="geometry"/>
                </mxCell>
                <mxCell id="176" value="&lt;span style=&quot;font-size: 17px;&quot;&gt;Yes&lt;/span&gt;" style="text;html=1;strokeColor=none;fillColor=none;align=center;verticalAlign=middle;whiteSpace=wrap;rounded=0;shadow=0;labelBackgroundColor=none;strokeWidth=3;fontFamily=Helvetica;fontSize=12;fontColor=#000000;" parent="1" vertex="1">
                    <mxGeometry x="1727" y="12.999999999999886" width="60" height="30" as="geometry"/>
                </mxCell>
                <mxCell id="180" value="Spara runda/utbetalnings historik" style="rounded=0;whiteSpace=wrap;html=1;shadow=0;labelBackgroundColor=none;strokeColor=#000000;strokeWidth=3;fontFamily=Helvetica;fontSize=17;fontColor=#000000;fillColor=#FFFFFF;" parent="1" vertex="1">
                    <mxGeometry x="802.5" y="2662" width="142" height="78" as="geometry"/>
                </mxCell>
                <mxCell id="182" style="edgeStyle=none;html=1;exitX=0.478;exitY=1.004;exitDx=0;exitDy=0;strokeColor=#000000;strokeWidth=6;exitPerimeter=0;entryX=0.5;entryY=0;entryDx=0;entryDy=0;" parent="1" source="180" target="21" edge="1">
                    <mxGeometry relative="1" as="geometry">
                        <mxPoint x="975" y="2846" as="sourcePoint"/>
                        <mxPoint x="1146.0381868610402" y="2846.2727881768114" as="targetPoint"/>
                    </mxGeometry>
                </mxCell>
                <mxCell id="190" style="edgeStyle=none;html=1;exitX=1;exitY=0.5;exitDx=0;exitDy=0;strokeColor=#000000;strokeWidth=6;" parent="1" source="162" edge="1">
                    <mxGeometry relative="1" as="geometry">
                        <mxPoint x="1627" y="3261" as="targetPoint"/>
                        <mxPoint x="2227" y="145.5" as="sourcePoint"/>
                        <Array as="points">
                            <mxPoint x="2684" y="840"/>
                            <mxPoint x="2850" y="1782"/>
                            <mxPoint x="2739" y="3225"/>
                        </Array>
                    </mxGeometry>
                </mxCell>
                <mxCell id="192" value="&lt;span style=&quot;font-size: 17px;&quot;&gt;Yes&lt;/span&gt;" style="text;html=1;strokeColor=none;fillColor=none;align=center;verticalAlign=middle;whiteSpace=wrap;rounded=0;shadow=0;labelBackgroundColor=none;strokeWidth=3;fontFamily=Helvetica;fontSize=12;fontColor=#000000;" parent="1" vertex="1">
                    <mxGeometry x="2191" y="199.9999999999999" width="60" height="30" as="geometry"/>
                </mxCell>
                <mxCell id="193" value="&lt;span style=&quot;font-size: 17px;&quot;&gt;No&lt;/span&gt;" style="text;html=1;strokeColor=none;fillColor=none;align=center;verticalAlign=middle;whiteSpace=wrap;rounded=0;shadow=0;labelBackgroundColor=none;strokeWidth=3;fontFamily=Helvetica;fontSize=12;fontColor=#000000;" parent="1" vertex="1">
                    <mxGeometry x="-257" y="-55.000000000000114" width="60" height="30" as="geometry"/>
                </mxCell>
                <mxCell id="201" style="edgeStyle=none;html=1;exitX=1;exitY=0.5;exitDx=0;exitDy=0;entryX=0;entryY=0.5;entryDx=0;entryDy=0;strokeColor=#000000;strokeWidth=6;fontSize=17;" edge="1" parent="1" source="196" target="199">
                    <mxGeometry relative="1" as="geometry"/>
                </mxCell>
                <mxCell id="196" value="Ut: Spel regler" style="shape=parallelogram;perimeter=parallelogramPerimeter;whiteSpace=wrap;html=1;fixedSize=1;shadow=0;labelBackgroundColor=none;strokeColor=#000000;strokeWidth=3;fontFamily=Helvetica;fontSize=17;fontColor=#000000;fillColor=#FFFFFF;" vertex="1" parent="1">
                    <mxGeometry x="-1159" y="23" width="300" height="110" as="geometry"/>
                </mxCell>
                <mxCell id="200" style="edgeStyle=none;html=1;exitX=1;exitY=0.5;exitDx=0;exitDy=0;strokeColor=#000000;strokeWidth=6;fontSize=17;" edge="1" parent="1" source="199" target="146">
                    <mxGeometry relative="1" as="geometry"/>
                </mxCell>
                <mxCell id="199" value="&lt;div style=&quot;line-height: 19px;&quot;&gt;&lt;div style=&quot;&quot;&gt;&lt;div style=&quot;&quot;&gt;&lt;font style=&quot;font-size: 17px;&quot;&gt;Ålder verfiering&lt;/font&gt;&lt;/div&gt;&lt;/div&gt;&lt;/div&gt;" style="rounded=0;whiteSpace=wrap;html=1;shadow=0;labelBackgroundColor=none;strokeColor=#000000;strokeWidth=3;fontSize=15;fontColor=#000000;fillColor=#FFFFFF;align=center;movable=1;resizable=1;rotatable=1;deletable=1;editable=1;connectable=1;" vertex="1" parent="1">
                    <mxGeometry x="-734" y="32.25" width="250" height="90" as="geometry"/>
                </mxCell>
                <mxCell id="203" style="edgeStyle=none;html=1;exitX=1;exitY=0.5;exitDx=0;exitDy=0;strokeColor=#000000;strokeWidth=6;fontSize=16;" edge="1" parent="1" source="202" target="4">
                    <mxGeometry relative="1" as="geometry"/>
                </mxCell>
                <mxCell id="204" style="edgeStyle=none;html=1;exitX=1;exitY=0.5;exitDx=0;exitDy=0;entryX=0;entryY=0.413;entryDx=0;entryDy=0;strokeColor=#000000;strokeWidth=6;fontSize=16;entryPerimeter=0;" edge="1" parent="1" source="146" target="202">
                    <mxGeometry relative="1" as="geometry">
                        <mxPoint x="34" y="68.99999999999977" as="targetPoint"/>
                    </mxGeometry>
                </mxCell>
                <mxCell id="205" value="&lt;span style=&quot;font-size: 17px;&quot;&gt;Yes&lt;/span&gt;" style="text;html=1;strokeColor=none;fillColor=none;align=center;verticalAlign=middle;whiteSpace=wrap;rounded=0;shadow=0;labelBackgroundColor=none;strokeWidth=3;fontFamily=Helvetica;fontSize=12;fontColor=#000000;" vertex="1" parent="1">
                    <mxGeometry x="-44" y="32.999999999999886" width="60" height="30" as="geometry"/>
                </mxCell>
                <mxCell id="206" value="" style="edgeStyle=none;html=1;exitX=1;exitY=0.5;exitDx=0;exitDy=0;fontFamily=Helvetica;fontSize=15;fontColor=#000000;startArrow=none;shadow=0;endArrow=none;" edge="1" parent="1" source="4" target="202">
                    <mxGeometry relative="1" as="geometry">
                        <mxPoint x="160" y="80" as="targetPoint"/>
                        <mxPoint x="622" y="78" as="sourcePoint"/>
                    </mxGeometry>
                </mxCell>
                <mxCell id="202" value="&lt;div style=&quot;line-height: 19px;&quot;&gt;&lt;div style=&quot;&quot;&gt;&lt;div style=&quot;&quot;&gt;&lt;font style=&quot;font-size: 16px;&quot;&gt;Terminal rensing&lt;/font&gt;&lt;/div&gt;&lt;/div&gt;&lt;/div&gt;" style="rounded=0;whiteSpace=wrap;html=1;shadow=0;labelBackgroundColor=none;strokeColor=#000000;strokeWidth=3;fontSize=15;fontColor=#000000;fillColor=#FFFFFF;align=center;movable=1;resizable=1;rotatable=1;deletable=1;editable=1;connectable=1;" vertex="1" parent="1">
                    <mxGeometry x="53" y="35" width="250" height="90" as="geometry"/>
                </mxCell>
            </root>
        </mxGraphModel>
    </diagram>
</mxfile>